<svg width="990" height="170" viewBox="0 0 990 170" fill="none" xmlns="http://www.w3.org/2000/svg">
<path d="M255.245 22.88V119H239.855V22.88H255.245ZM292.473 120.62C284.553 120.62 278.388 118.235 273.978 113.465C269.658 108.695 267.498 101.675 267.498 92.405V50.42H282.888V91.055C282.888 102.485 287.523 108.2 296.793 108.2C301.383 108.2 305.118 106.49 307.998 103.07C310.968 99.65 312.453 94.79 312.453 88.49V50.42H327.843V119H313.263V110.09H312.993C308.133 117.11 301.293 120.62 292.473 120.62ZM376.159 48.8C384.079 48.8 390.199 51.185 394.519 55.955C398.929 60.725 401.134 67.745 401.134 77.015V119H385.744V78.365C385.744 66.935 381.109 61.22 371.839 61.22C367.249 61.22 363.469 62.93 360.499 66.35C357.619 69.77 356.179 74.63 356.179 80.93V119H340.789V50.42H355.369V59.33H355.639C360.499 52.31 367.339 48.8 376.159 48.8ZM439.054 48.395C448.234 48.395 455.209 50.645 459.979 55.145C464.839 59.645 467.269 66.35 467.269 75.26V100.91C467.269 108.29 467.854 114.32 469.024 119H455.119C454.489 116.21 454.174 113.015 454.174 109.415H453.904C448.864 116.795 441.169 120.485 430.819 120.485C423.799 120.485 418.174 118.595 413.944 114.815C409.714 110.945 407.599 106.04 407.599 100.1C407.599 94.25 409.579 89.57 413.539 86.06C417.589 82.55 424.384 80.03 433.924 78.5C439.684 77.51 445.849 76.835 452.419 76.475V73.775C452.419 64.325 447.964 59.6 439.054 59.6C434.914 59.6 431.674 60.68 429.334 62.84C426.994 65 425.734 67.925 425.554 71.615H410.434C410.794 64.775 413.404 59.195 418.264 54.875C423.214 50.555 430.144 48.395 439.054 48.395ZM452.419 89.84V86.465C446.569 86.825 441.304 87.41 436.624 88.22C431.674 89.03 428.164 90.245 426.094 91.865C424.114 93.485 423.124 95.87 423.124 99.02C423.124 102.08 424.159 104.555 426.229 106.445C428.389 108.245 431.404 109.145 435.274 109.145C440.494 109.145 444.634 107.615 447.694 104.555C449.494 102.665 450.709 100.685 451.339 98.615C452.059 96.455 452.419 93.53 452.419 89.84ZM513.582 49.475C515.382 49.475 517.272 49.7 519.252 50.15V63.785C517.542 63.425 515.742 63.245 513.852 63.245C507.732 63.245 503.007 65.18 499.677 69.05C496.437 72.83 494.817 78.275 494.817 85.385V119H479.427V50.42H493.737V60.545H494.007C498.597 53.165 505.122 49.475 513.582 49.475ZM571.554 48.395C580.374 48.395 587.169 50.42 591.939 54.47C596.799 58.43 599.274 64.19 599.364 71.75H584.514C584.514 63.65 580.149 59.6 571.419 59.6C567.819 59.6 565.029 60.32 563.049 61.76C561.069 63.2 560.079 65.18 560.079 67.7C560.079 70.4 561.114 72.335 563.184 73.505C565.254 74.675 569.394 76.025 575.604 77.555C578.124 78.185 579.699 78.59 580.329 78.77C581.049 78.95 582.534 79.4 584.784 80.12C587.124 80.75 588.654 81.335 589.374 81.875C590.184 82.325 591.444 83 593.154 83.9C594.864 84.8 596.034 85.745 596.664 86.735C597.384 87.635 598.194 88.76 599.094 90.11C600.084 91.46 600.714 92.99 600.984 94.7C601.344 96.32 601.524 98.12 601.524 100.1C601.524 106.4 598.914 111.485 593.694 115.355C588.474 119.135 581.499 121.025 572.769 121.025C563.409 121.025 556.119 118.955 550.899 114.815C545.769 110.585 543.159 104.465 543.069 96.455H558.729C558.729 100.685 559.944 103.925 562.374 106.175C564.894 108.425 568.449 109.55 573.039 109.55C576.909 109.55 579.924 108.785 582.084 107.255C584.334 105.725 585.459 103.655 585.459 101.045C585.459 97.805 584.289 95.555 581.949 94.295C579.609 92.945 575.019 91.415 568.179 89.705C565.659 89.075 563.949 88.67 563.049 88.49C562.239 88.22 560.754 87.77 558.594 87.14C556.434 86.42 554.904 85.79 554.004 85.25C553.104 84.62 551.889 83.765 550.359 82.685C548.919 81.605 547.884 80.48 547.254 79.31C546.624 78.05 546.039 76.565 545.499 74.855C544.959 73.055 544.689 71.075 544.689 68.915C544.689 62.795 547.164 57.845 552.114 54.065C557.064 50.285 563.544 48.395 571.554 48.395ZM637.406 107.255C639.386 107.255 640.961 107.03 642.131 106.58V118.595C639.341 119.405 636.461 119.81 633.491 119.81C626.201 119.81 620.891 118.19 617.561 114.95C614.321 111.62 612.701 106.22 612.701 98.75V62.165H601.226V50.42H612.701V33.275H628.091V50.42H641.456V62.165H628.091V96.455C628.091 100.325 628.811 103.115 630.251 104.825C631.691 106.445 634.076 107.255 637.406 107.255ZM683.018 49.475C684.818 49.475 686.708 49.7 688.688 50.15V63.785C686.978 63.425 685.178 63.245 683.288 63.245C677.168 63.245 672.443 65.18 669.113 69.05C665.873 72.83 664.253 78.275 664.253 85.385V119H648.863V50.42H663.173V60.545H663.443C668.033 53.165 674.558 49.475 683.018 49.475ZM716.015 48.395C725.195 48.395 732.17 50.645 736.94 55.145C741.8 59.645 744.23 66.35 744.23 75.26V100.91C744.23 108.29 744.815 114.32 745.985 119H732.08C731.45 116.21 731.135 113.015 731.135 109.415H730.865C725.825 116.795 718.13 120.485 707.78 120.485C700.76 120.485 695.135 118.595 690.905 114.815C686.675 110.945 684.56 106.04 684.56 100.1C684.56 94.25 686.54 89.57 690.5 86.06C694.55 82.55 701.345 80.03 710.885 78.5C716.645 77.51 722.81 76.835 729.38 76.475V73.775C729.38 64.325 724.925 59.6 716.015 59.6C711.875 59.6 708.635 60.68 706.295 62.84C703.955 65 702.695 67.925 702.515 71.615H687.395C687.755 64.775 690.365 59.195 695.225 54.875C700.175 50.555 707.105 48.395 716.015 48.395ZM729.38 89.84V86.465C723.53 86.825 718.265 87.41 713.585 88.22C708.635 89.03 705.125 90.245 703.055 91.865C701.075 93.485 700.085 95.87 700.085 99.02C700.085 102.08 701.12 104.555 703.19 106.445C705.35 108.245 708.365 109.145 712.235 109.145C717.455 109.145 721.595 107.615 724.655 104.555C726.455 102.665 727.67 100.685 728.3 98.615C729.02 96.455 729.38 93.53 729.38 89.84ZM782.61 107.255C784.59 107.255 786.165 107.03 787.335 106.58V118.595C784.545 119.405 781.665 119.81 778.695 119.81C771.405 119.81 766.095 118.19 762.765 114.95C759.525 111.62 757.905 106.22 757.905 98.75V62.165H746.43V50.42H757.905V33.275H773.295V50.42H786.66V62.165H773.295V96.455C773.295 100.325 774.015 103.115 775.455 104.825C776.895 106.445 779.28 107.255 782.61 107.255ZM820.443 109.685C824.763 109.685 828.273 108.65 830.973 106.58C833.763 104.51 835.518 101.765 836.238 98.345H852.033C850.683 104.825 847.218 110.225 841.638 114.545C836.058 118.865 828.993 121.025 820.443 121.025C810.093 121.025 801.948 117.65 796.008 110.9C790.158 104.15 787.233 95.15 787.233 83.9C787.233 73.55 790.158 65.045 796.008 58.385C801.948 51.725 810.003 48.395 820.173 48.395C827.913 48.395 834.483 50.51 839.883 54.74C845.373 58.88 849.063 64.55 850.953 71.75C852.213 75.8 852.843 81.155 852.843 87.815H802.488C802.758 95.195 804.513 100.685 807.753 104.285C811.083 107.885 815.313 109.685 820.443 109.685ZM831.918 64.325C828.858 61.265 824.943 59.735 820.173 59.735C815.403 59.735 811.443 61.265 808.293 64.325C805.233 67.385 803.388 71.84 802.758 77.69H837.453C836.913 71.84 835.068 67.385 831.918 64.325ZM886.362 48.53C894.642 48.53 901.302 52.355 906.342 60.005H906.612V50.42H921.192V114.68C921.192 124.76 918.447 132.32 912.957 137.36C907.557 142.49 899.907 145.055 890.007 145.055C880.917 145.055 873.807 143.12 868.677 139.25C863.637 135.47 860.937 130.16 860.577 123.32H875.967C876.147 126.65 877.497 129.215 880.017 131.015C882.537 132.815 885.957 133.715 890.277 133.715C895.587 133.715 899.547 132.185 902.157 129.125C904.857 126.065 906.207 121.07 906.207 114.14V107.39H905.937C900.987 114.59 894.372 118.19 886.092 118.19C877.362 118.19 870.432 115.04 865.302 108.74C860.172 102.44 857.607 93.98 857.607 83.36C857.607 72.74 860.217 64.28 865.437 57.98C870.657 51.68 877.632 48.53 886.362 48.53ZM889.872 61.355C884.922 61.355 880.962 63.335 877.992 67.295C875.112 71.255 873.672 76.61 873.672 83.36C873.672 90.11 875.112 95.51 877.992 99.56C880.962 103.52 884.922 105.5 889.872 105.5C895.092 105.5 899.187 103.52 902.157 99.56C905.217 95.51 906.747 90.11 906.747 83.36C906.747 76.61 905.217 71.255 902.157 67.295C899.187 63.335 895.092 61.355 889.872 61.355ZM973.083 50.42H989.013L962.553 121.97C959.313 130.61 955.488 136.55 951.078 139.79C946.758 143.03 940.593 144.65 932.583 144.65C929.793 144.65 927.228 144.335 924.888 143.705V131.15C926.958 131.78 929.118 132.095 931.368 132.095C935.508 132.095 938.658 131.195 940.818 129.395C943.068 127.595 945.003 124.31 946.623 119.54L921.513 50.42H937.983L955.128 101.45H955.398L973.083 50.42Z" fill="#F5F5F5"/>
<path d="M56.6652 58.2767C56.6652 57.384 57.3889 56.6603 58.2816 56.6603H113.333V111.711C113.333 112.604 112.609 113.328 111.716 113.328H56.6652V58.2767Z" fill="#F5F5F5"/>
<path d="M-0.000174968 114.949C-0.000174968 114.056 0.723494 113.332 1.61619 113.332H56.6671V168.383C56.6671 169.276 55.9435 170 55.0508 170H1.61619C0.723494 170 -0.000174968 169.276 -0.000174968 168.383V114.949Z" fill="#F5F5F5"/>
<path d="M113.332 1.61636C113.332 0.723669 114.055 0 114.948 0H168.383C169.275 0 169.999 0.723669 169.999 1.61636V55.0509C169.999 55.9436 169.275 56.6673 168.383 56.6673H113.332V1.61636Z" fill="#F5F5F5"/>
<path d="M59.9025 113.332C57.3921 113.33 56.6607 114.015 56.6644 116.57L53.4263 113.332C55.9174 113.333 56.6622 112.658 56.6644 110.094L59.9025 113.332Z" fill="#F5F5F5"/>
<path d="M116.569 56.6651C114.059 56.6638 113.327 57.3482 113.331 59.9033L110.093 56.6651C112.584 56.6665 113.329 55.9919 113.331 53.427L116.569 56.6651Z" fill="#F5F5F5"/>
</svg>
