<svg width="172" height="27" viewBox="0 0 172 27" fill="none" xmlns="http://www.w3.org/2000/svg">
<mask id="mask0_8_1991" style="mask-type:luminance" maskUnits="userSpaceOnUse" x="0" y="3" width="152" height="24">
<path d="M152 3H0V27H152V3Z" fill="white"/>
</mask>
<g mask="url(#mask0_8_1991)">
<path d="M19.6079 3.83911L13.8672 13.759H8.29171L6.85653 16.2409H0L4.7937 7.97913H5.67462C8.6294 7.97913 11.3676 6.39414 12.8468 3.83911H19.6079Z" fill="#6CFCFF"/>
<path d="M13.8671 13.7593L12.432 16.2411H6.85645L8.29162 13.7593H13.8671Z" fill="#5678C4"/>
<path d="M20.7163 13.7593L15.9336 22.021H15.0527C12.0869 22.021 9.3524 23.595 7.86951 26.161H1.1084L6.85644 16.2411H12.432L13.8671 13.7593H20.7163Z" fill="#B027D9"/>
<path d="M31.5996 15C31.5996 9.46164 35.8684 5.2594 41.5577 5.2594C47.247 5.2594 51.5159 9.46164 51.5159 15C51.5159 20.5383 47.2214 24.7405 41.5577 24.7405C35.8941 24.7405 31.5996 20.5383 31.5996 15ZM47.6324 15C47.6324 11.5079 45.008 8.8906 41.5577 8.8906C38.1074 8.8906 35.4573 11.5079 35.4573 15C35.4573 18.4921 38.0818 21.1093 41.5577 21.1093C45.0337 21.1093 47.6324 18.4921 47.6324 15Z" fill="white"/>
<path d="M53.7588 19.4182V10.4976H57.3155V18.3823C57.3155 20.1539 58.4644 21.3033 60.1896 21.3033C62.0211 21.3033 63.2545 20.1283 63.2545 18.331V10.5012H66.8112V24.4147H63.2545V22.8883C62.1863 24.1146 60.7365 24.7442 59.015 24.7442C55.8693 24.7442 53.7625 22.6431 53.7625 19.4255L53.7588 19.4182Z" fill="white"/>
<path d="M71.2414 20.0187V13.7446H69.0244V10.4978H70.2834C71.0212 10.4978 71.4323 10.1171 71.4323 9.37765V6.78601H74.7981V10.4978H78.0245V13.7446H74.7981V19.4184C74.7981 20.5092 75.4809 21.1644 76.6297 21.1644H78.0245V24.4113H76.1085C72.9078 24.4113 71.2377 22.8849 71.2377 20.0187H71.2414Z" fill="white"/>
<path d="M79.4746 17.4563C79.4746 13.3089 82.701 10.1719 86.9698 10.1719C90.6917 10.1719 93.5914 12.5439 94.1384 15.8456H90.3614C89.8952 14.5096 88.5849 13.6091 86.9698 13.6091C84.7822 13.6091 83.1415 15.2746 83.1415 17.4563C83.1415 19.6379 84.7822 21.3034 86.9698 21.3034C88.5849 21.3034 89.8952 20.4029 90.3614 19.0669H94.1384C93.5914 22.3686 90.6917 24.7406 86.9698 24.7406C82.701 24.7406 79.4746 21.6036 79.4746 17.4563Z" fill="white"/>
<path d="M95.5361 17.4563C95.5361 13.3089 98.7625 10.1719 103.031 10.1719C107.3 10.1719 110.527 13.3089 110.527 17.4563C110.527 21.6036 107.3 24.7406 103.031 24.7406C98.7625 24.7406 95.5361 21.6036 95.5361 17.4563ZM106.86 17.4563C106.86 15.2746 105.245 13.6091 103.031 13.6091C100.818 13.6091 99.203 15.2746 99.203 17.4563C99.203 19.6379 100.844 21.3034 103.031 21.3034C105.219 21.3034 106.86 19.6379 106.86 17.4563Z" fill="white"/>
<path d="M112.796 10.4977H116.352V11.9436C117.391 10.7722 118.786 10.1719 120.482 10.1719C122.479 10.1719 124.064 11.0724 124.912 12.5732C126.006 11.0175 127.647 10.1719 129.698 10.1719C132.763 10.1719 134.815 12.2181 134.815 15.3551V24.4112H131.258V16.4167C131.258 14.7255 130.19 13.6054 128.524 13.6054C126.773 13.6054 125.595 14.7511 125.595 16.4716V24.4112H122.038V16.4167C122.038 14.7255 120.944 13.6054 119.303 13.6054C117.553 13.6054 116.349 14.7511 116.349 16.4716V24.4112H112.792V10.4977H112.796Z" fill="white"/>
<path d="M137.01 17.4563C137.01 13.3089 140.236 10.1719 144.505 10.1719C148.774 10.1719 152 13.3089 152 17.5112C152 17.8919 151.974 18.3311 151.89 18.6862H140.812C141.278 20.4871 142.728 21.6585 144.641 21.6585C146.09 21.6585 147.294 21.0033 147.922 20.1028H151.78C150.712 22.8591 147.951 24.7406 144.556 24.7406C140.232 24.7406 137.006 21.6036 137.006 17.4563H137.01ZM140.838 16.0909H148.197C147.76 14.3997 146.336 13.254 144.505 13.254C142.673 13.254 141.333 14.3741 140.838 16.0909Z" fill="white"/>
</g>
</svg>
