<svg width="108" height="26" viewBox="0 0 108 26" fill="none" xmlns="http://www.w3.org/2000/svg">
<path d="M14.2477 8.81623C16.8276 8.31505 19.6021 9.06396 21.6003 11.0623C23.6198 13.082 24.3622 15.8945 23.8288 18.4979C21.2258 19.0313 18.4137 18.2888 16.3942 16.2694C15.3127 15.1877 14.597 13.8785 14.2477 12.4959C13.8985 13.8783 13.1846 15.1878 12.1032 16.2694C10.0837 18.2891 7.2708 19.0314 4.66765 18.4979C4.13422 15.8946 4.87679 13.082 6.89617 11.0623C8.89405 9.06428 11.6682 8.31552 14.2477 8.81623Z" fill="#0045EF"/>
<path d="M14.2489 13.6609C14.5979 15.0443 15.3133 16.354 16.3954 17.4363C16.935 17.9759 17.5313 18.4236 18.1649 18.781V22.2507C18.1649 24.3214 16.4857 25.9998 14.4149 25.9998C12.3443 25.9996 10.6659 24.3214 10.6659 22.2507V18.5837C11.1762 18.263 11.6592 17.8805 12.1034 17.4363C13.1852 16.3542 13.9 15.044 14.2489 13.6609Z" fill="#BAFEFF"/>
<path d="M28.6738 7.66357C27.8173 11.4789 24.4095 14.3294 20.3359 14.3296C17.9977 14.3296 15.8798 13.3894 14.3369 11.8677C12.794 13.3894 10.6761 14.3296 8.33789 14.3296C4.26426 14.3295 0.856518 11.479 0 7.66357H28.6738Z" fill="#003CFF"/>
<mask id="mask0_34_12954" style="mask-type:alpha" maskUnits="userSpaceOnUse" x="0" y="7" width="17" height="8">
<path d="M16.676 7.66235C15.8195 11.4778 12.4117 14.3285 8.33799 14.3285C4.26431 14.3285 0.856525 11.4778 0 7.66235H16.676Z" fill="#021587"/>
</mask>
<g mask="url(#mask0_34_12954)">
<rect x="-4.33199" y="8.66211" width="19.3302" height="8.16601" rx="4.083" fill="#0064FF"/>
<ellipse cx="9.91504" cy="17.4108" rx="9.91504" ry="8.08268" fill="#2A7EFF"/>
<ellipse cx="11.4985" cy="15.9943" rx="6.66557" ry="6.66613" fill="#BAFEFF"/>
</g>
<mask id="mask1_34_12954" style="mask-type:alpha" maskUnits="userSpaceOnUse" x="11" y="7" width="18" height="8">
<path d="M11.9855 7.6626C12.8421 11.4781 16.2499 14.3287 20.3235 14.3287C24.3972 14.3287 27.805 11.4781 28.6615 7.6626H11.9855Z" fill="#021587"/>
</mask>
<g mask="url(#mask1_34_12954)">
<rect width="19.3302" height="8.16601" rx="4.083" transform="matrix(-1 0 0 1 32.9936 8.66211)" fill="#0064FF"/>
<ellipse cx="9.91504" cy="8.08268" rx="9.91504" ry="8.08268" transform="matrix(-1 0 0 1 28.6616 9.32812)" fill="#2A7EFF"/>
<ellipse cx="6.66557" cy="6.66613" rx="6.66557" ry="6.66613" transform="matrix(-1 0 0 1 23.8286 9.32812)" fill="#BAFEFF"/>
</g>
<ellipse cx="13.915" cy="7.24895" rx="2.91619" ry="2.91643" fill="#BAFEFF"/>
<path d="M13.9137 5.79142V5.74939C13.9137 3.67867 15.5923 2.00004 17.663 2.00008V2.00008" stroke="#BAFEFF" stroke-width="3"/>
<path d="M13.9137 5.79142V5.74939C13.9137 3.67867 12.235 2.00004 10.1643 2.00008V2.00008" stroke="#BAFEFF" stroke-width="3"/>
<path d="M38.5015 18.8893C37.7527 18.8893 37.1643 18.7823 36.7364 18.5684C36.3086 18.3544 36.0037 18.0335 35.8218 17.6056C35.6507 17.1777 35.5651 16.6482 35.5651 16.0171V12.3104C35.5651 11.69 35.6507 11.1712 35.8218 10.754C35.993 10.3261 36.2925 10.0051 36.7204 9.79119C37.1483 9.56654 37.742 9.45422 38.5015 9.45422H43.1868C43.9356 9.45422 44.5185 9.56654 44.9357 9.79119C45.3636 10.0051 45.6631 10.3261 45.8343 10.754C46.0161 11.1712 46.1071 11.69 46.1071 12.3104V16.0171C46.1071 16.9584 45.8985 17.6752 45.4813 18.1672C45.0641 18.6486 44.2993 18.8893 43.1868 18.8893H38.5015ZM38.9668 17.3489H42.7375C43.1333 17.3489 43.4381 17.2473 43.6521 17.044C43.8767 16.8408 43.989 16.5626 43.989 16.2096V12.1179C43.989 11.8076 43.8767 11.5456 43.6521 11.3316C43.4274 11.107 43.1226 10.9946 42.7375 10.9946H38.9668C38.5817 10.9946 38.2715 11.0963 38.0361 11.2995C37.8008 11.5028 37.6831 11.7756 37.6831 12.1179V16.2096C37.6831 16.5733 37.7954 16.8568 38.0201 17.0601C38.2554 17.2526 38.571 17.3489 38.9668 17.3489Z" fill="#E9EFFF"/>
<path d="M50.309 18.8893C49.7848 18.8893 49.373 18.8198 49.0735 18.6807C48.7847 18.5417 48.5761 18.3651 48.4477 18.1512C48.33 17.9372 48.2552 17.7126 48.2231 17.4773C48.2017 17.2419 48.191 17.028 48.191 16.8354V11.7007H50.1485V16.8675C50.1378 17.1029 50.2127 17.2687 50.3732 17.3649C50.5443 17.4612 50.7262 17.5094 50.9187 17.5094H54.0958C54.3311 17.5094 54.4702 17.488 54.5129 17.4452C54.5557 17.4024 54.5771 17.2633 54.5771 17.028V11.7007H56.5347V18.8893H55.219L54.6092 18.5684C54.1813 18.654 53.6732 18.7289 53.0849 18.793C52.5072 18.8572 51.8547 18.8893 51.1273 18.8893H50.309Z" fill="#E9EFFF"/>
<path d="M61.2465 18.8893C60.4335 18.8893 59.8772 18.7182 59.5777 18.3758C59.2782 18.0335 59.1284 17.5201 59.1284 16.8354V13.0806H57.8127V11.7007H58.4866C58.6899 11.7007 58.8343 11.6686 58.9198 11.6044C59.0161 11.5402 59.0856 11.4118 59.1284 11.2193L59.4493 9.50236H61.086V11.7007H64.4235V13.0806H61.086V16.8515C61.086 17.1189 61.1502 17.2954 61.2785 17.381C61.4069 17.4666 61.5995 17.5094 61.8562 17.5094H64.1186L64.2791 18.7289C64.0544 18.7609 63.7121 18.7984 63.2522 18.8412C62.7922 18.8733 62.2894 18.8893 61.7439 18.8893H61.2465Z" fill="#E9EFFF"/>
<path d="M66.0304 18.8893L66.1909 17.6056V9.45422H68.3089V17.3489H74.9518L75.5936 18.7128C75.5936 18.7556 75.4492 18.7984 75.1604 18.8412C74.8715 18.8733 74.3741 18.8893 73.6681 18.8893H66.0304Z" fill="#E9EFFF"/>
<path d="M77.8488 10.6898C77.453 10.6898 77.1641 10.6095 76.9823 10.4491C76.8004 10.2886 76.7095 10.0212 76.7095 9.64677C76.7095 9.26167 76.7951 8.99423 76.9662 8.84447C77.1481 8.68401 77.4423 8.60378 77.8488 8.60378C78.2552 8.60378 78.5494 8.68401 78.7313 8.84447C78.9131 8.99423 79.004 9.26167 79.004 9.64677C79.004 10.0105 78.9131 10.2779 78.7313 10.4491C78.5494 10.6095 78.2552 10.6898 77.8488 10.6898ZM76.87 18.8893V11.7007H78.8275V18.8893H76.87Z" fill="#E9EFFF"/>
<path d="M86.2036 21.7134C85.0269 21.7134 84.0696 21.7027 83.3315 21.6813C82.5934 21.6599 82.0264 21.6278 81.6306 21.5851C81.2348 21.5423 80.9621 21.4888 80.8123 21.4246C80.6732 21.3604 80.6037 21.2909 80.6037 21.216L81.0851 20.0125C81.2562 20.066 81.5557 20.1302 81.9836 20.2051C82.4222 20.2907 82.9785 20.3335 83.6524 20.3335H86.3962C86.792 20.3335 87.0701 20.2746 87.2305 20.157C87.4017 20.0393 87.4873 19.8307 87.4873 19.5312V18.5684C87.0273 18.654 86.4817 18.7289 85.8506 18.793C85.2302 18.8572 84.5135 18.8893 83.7005 18.8893H82.8982C82.3634 18.8893 81.9515 18.8198 81.6627 18.6807C81.3739 18.5417 81.1653 18.3651 81.0369 18.1512C80.9193 17.9372 80.8444 17.7126 80.8123 17.4773C80.7909 17.2419 80.7802 17.028 80.7802 16.8354V13.7546C80.7802 13.5941 80.7909 13.4016 80.8123 13.1769C80.8444 12.9416 80.9193 12.7116 81.0369 12.4869C81.1653 12.2623 81.3739 12.0751 81.6627 11.9253C81.9622 11.7756 82.3741 11.7007 82.8982 11.7007H83.7165C84.8397 11.7007 85.7116 11.7221 86.332 11.7649C86.9631 11.8076 87.4231 11.8558 87.7119 11.9093L88.1291 11.7007H89.4448V19.6595C89.4448 19.8521 89.4127 20.066 89.3486 20.3014C89.2951 20.5367 89.1827 20.7614 89.0116 20.9753C88.8404 21.1893 88.5944 21.3658 88.2735 21.5048C87.9526 21.6439 87.5301 21.7134 87.0059 21.7134H86.2036ZM83.508 17.5094H86.9899C87.2359 17.5094 87.3803 17.488 87.4231 17.4452C87.4659 17.4024 87.4873 17.2633 87.4873 17.028V13.193C87.1236 13.1716 86.6636 13.1502 86.1073 13.1288C85.5511 13.0967 84.9574 13.0806 84.3263 13.0806H83.508C82.9945 13.0806 82.7378 13.2946 82.7378 13.7225V16.8675C82.7271 17.2954 82.9838 17.5094 83.508 17.5094Z" fill="#E9EFFF"/>
<path d="M91.3762 18.8893V8.49146H93.3338V12.0216C93.783 11.936 94.3232 11.8611 94.9544 11.7969C95.5855 11.7328 96.3075 11.7007 97.1205 11.7007H97.9228C98.4576 11.7007 98.8695 11.7756 99.1583 11.9253C99.4471 12.0751 99.6504 12.2623 99.768 12.4869C99.8964 12.7116 99.9713 12.9416 99.9927 13.1769C100.025 13.4016 100.041 13.5941 100.041 13.7546V18.8893H98.0832V13.7225C98.0832 13.2946 97.8265 13.0806 97.3131 13.0806H93.8151C93.6119 13.0806 93.4782 13.102 93.414 13.1448C93.3605 13.1769 93.3338 13.2732 93.3338 13.4336V18.8893H91.3762Z" fill="#E9EFFF"/>
<path d="M104.682 18.8893C103.869 18.8893 103.313 18.7182 103.014 18.3758C102.714 18.0335 102.564 17.5201 102.564 16.8354V13.0806H101.249V11.7007H101.923C102.126 11.7007 102.27 11.6686 102.356 11.6044C102.452 11.5402 102.522 11.4118 102.564 11.2193L102.885 9.50236H104.522V11.7007H107.859V13.0806H104.522V16.8515C104.522 17.1189 104.586 17.2954 104.714 17.381C104.843 17.4666 105.035 17.5094 105.292 17.5094H107.555L107.715 18.7289C107.49 18.7609 107.148 18.7984 106.688 18.8412C106.228 18.8733 105.725 18.8893 105.18 18.8893H104.682Z" fill="#E9EFFF"/>
<path d="M38.5005 18.8903C37.7517 18.8903 37.1633 18.7833 36.7355 18.5694C36.3076 18.3554 36.0027 18.0345 35.8209 17.6066C35.6497 17.1787 35.5641 16.6492 35.5641 16.018V12.3114C35.5641 11.691 35.6497 11.1721 35.8209 10.7549C35.992 10.327 36.2915 10.0061 36.7194 9.79216C37.1473 9.56752 37.741 9.4552 38.5005 9.4552H43.1858C43.9346 9.4552 44.5176 9.56752 44.9348 9.79216C45.3626 10.0061 45.6622 10.327 45.8333 10.7549C46.0152 11.1721 46.1061 11.691 46.1061 12.3114V16.018C46.1061 16.9594 45.8975 17.6761 45.4803 18.1682C45.0631 18.6496 44.2983 18.8903 43.1858 18.8903H38.5005ZM38.9658 17.3499H42.7365C43.1323 17.3499 43.4372 17.2482 43.6511 17.045C43.8757 16.8417 43.9881 16.5636 43.9881 16.2106V12.1188C43.9881 11.8086 43.8757 11.5465 43.6511 11.3326C43.4265 11.1079 43.1216 10.9956 42.7365 10.9956H38.9658C38.5807 10.9956 38.2705 11.0972 38.0352 11.3005C37.7998 11.5037 37.6822 11.7765 37.6822 12.1188V16.2106C37.6822 16.5743 37.7945 16.8578 38.0191 17.061C38.2544 17.2536 38.57 17.3499 38.9658 17.3499Z" fill="#E9EFFF"/>
<path d="M50.308 18.8903C49.7839 18.8903 49.372 18.8208 49.0725 18.6817C48.7837 18.5426 48.5751 18.3661 48.4467 18.1522C48.3291 17.9382 48.2542 17.7136 48.2221 17.4782C48.2007 17.2429 48.19 17.0289 48.19 16.8364V11.7016H50.1476V16.8685C50.1369 17.1038 50.2118 17.2696 50.3722 17.3659C50.5434 17.4622 50.7252 17.5103 50.9178 17.5103H54.0948C54.3301 17.5103 54.4692 17.4889 54.512 17.4461C54.5548 17.4034 54.5762 17.2643 54.5762 17.0289V11.7016H56.5337V18.8903H55.218L54.6082 18.5694C54.1804 18.655 53.6723 18.7298 53.0839 18.794C52.5063 18.8582 51.8538 18.8903 51.1264 18.8903H50.308Z" fill="#E9EFFF"/>
<path d="M61.2455 18.8903C60.4325 18.8903 59.8763 18.7191 59.5767 18.3768C59.2772 18.0345 59.1275 17.521 59.1275 16.8364V13.0816H57.8117V11.7016H58.4856C58.6889 11.7016 58.8333 11.6696 58.9189 11.6054C59.0151 11.5412 59.0847 11.4128 59.1275 11.2203L59.4484 9.50333H61.085V11.7016H64.4225V13.0816H61.085V16.8524C61.085 17.1199 61.1492 17.2964 61.2776 17.382C61.4059 17.4675 61.5985 17.5103 61.8552 17.5103H64.1176L64.2781 18.7298C64.0535 18.7619 63.7112 18.7994 63.2512 18.8422C62.7912 18.8742 62.2884 18.8903 61.7429 18.8903H61.2455Z" fill="#E9EFFF"/>
<path d="M66.0294 18.8903L66.1899 17.6066V9.4552H68.3079V17.3499H74.9508L75.5926 18.7138C75.5926 18.7566 75.4482 18.7994 75.1594 18.8422C74.8706 18.8742 74.3732 18.8903 73.6671 18.8903H66.0294Z" fill="#E9EFFF"/>
<path d="M77.8478 10.6907C77.452 10.6907 77.1632 10.6105 76.9813 10.4501C76.7995 10.2896 76.7085 10.0222 76.7085 9.64775C76.7085 9.26264 76.7941 8.99521 76.9653 8.84544C77.1471 8.68498 77.4413 8.60475 77.8478 8.60475C78.2543 8.60475 78.5484 8.68498 78.7303 8.84544C78.9121 8.99521 79.0031 9.26264 79.0031 9.64775C79.0031 10.0115 78.9121 10.2789 78.7303 10.4501C78.5484 10.6105 78.2543 10.6907 77.8478 10.6907ZM76.869 18.8903V11.7016H78.8266V18.8903H76.869Z" fill="#E9EFFF"/>
<path d="M86.2026 21.7144C85.026 21.7144 84.0686 21.7037 83.3305 21.6823C82.5924 21.6609 82.0254 21.6288 81.6296 21.586C81.2339 21.5432 80.9611 21.4898 80.8113 21.4256C80.6723 21.3614 80.6027 21.2919 80.6027 21.217L81.0841 20.0135C81.2552 20.067 81.5548 20.1312 81.9827 20.2061C82.4212 20.2917 82.9775 20.3344 83.6514 20.3344H86.3952C86.791 20.3344 87.0691 20.2756 87.2296 20.1579C87.4007 20.0403 87.4863 19.8317 87.4863 19.5321V18.5694C87.0263 18.655 86.4808 18.7298 85.8496 18.794C85.2292 18.8582 84.5125 18.8903 83.6995 18.8903H82.8972C82.3624 18.8903 81.9506 18.8208 81.6617 18.6817C81.3729 18.5426 81.1643 18.3661 81.036 18.1522C80.9183 17.9382 80.8434 17.7136 80.8113 17.4782C80.7899 17.2429 80.7792 17.0289 80.7792 16.8364V13.7555C80.7792 13.5951 80.7899 13.4025 80.8113 13.1779C80.8434 12.9425 80.9183 12.7126 81.036 12.4879C81.1643 12.2633 81.3729 12.0761 81.6617 11.9263C81.9613 11.7765 82.3731 11.7016 82.8972 11.7016H83.7156C84.8388 11.7016 85.7106 11.723 86.331 11.7658C86.9621 11.8086 87.4221 11.8568 87.7109 11.9102L88.1281 11.7016H89.4438V19.6605C89.4438 19.8531 89.4118 20.067 89.3476 20.3023C89.2941 20.5377 89.1818 20.7623 89.0106 20.9763C88.8395 21.1902 88.5934 21.3667 88.2725 21.5058C87.9516 21.6449 87.5291 21.7144 87.0049 21.7144H86.2026ZM83.507 17.5103H86.9889C87.2349 17.5103 87.3793 17.4889 87.4221 17.4461C87.4649 17.4034 87.4863 17.2643 87.4863 17.0289V13.1939C87.1226 13.1725 86.6626 13.1511 86.1064 13.1297C85.5501 13.0977 84.9564 13.0816 84.3253 13.0816H83.507C82.9935 13.0816 82.7368 13.2956 82.7368 13.7235V16.8685C82.7261 17.2964 82.9828 17.5103 83.507 17.5103Z" fill="#E9EFFF"/>
<path d="M91.3752 18.8903V8.49243H93.3328V12.0226C93.7821 11.937 94.3223 11.8621 94.9534 11.7979C95.5845 11.7337 96.3066 11.7016 97.1195 11.7016H97.9218C98.4567 11.7016 98.8685 11.7765 99.1573 11.9263C99.4461 12.0761 99.6494 12.2633 99.7671 12.4879C99.8954 12.7126 99.9703 12.9425 99.9917 13.1779C100.024 13.4025 100.04 13.5951 100.04 13.7555V18.8903H98.0823V13.7235C98.0823 13.2956 97.8255 13.0816 97.3121 13.0816H93.8141C93.6109 13.0816 93.4772 13.103 93.413 13.1458C93.3595 13.1779 93.3328 13.2742 93.3328 13.4346V18.8903H91.3752Z" fill="#E9EFFF"/>
<path d="M104.681 18.8903C103.868 18.8903 103.312 18.7191 103.013 18.3768C102.713 18.0345 102.563 17.521 102.563 16.8364V13.0816H101.248V11.7016H101.922C102.125 11.7016 102.269 11.6696 102.355 11.6054C102.451 11.5412 102.521 11.4128 102.563 11.2203L102.884 9.50333H104.521V11.7016H107.858V13.0816H104.521V16.8524C104.521 17.1199 104.585 17.2964 104.713 17.382C104.842 17.4675 105.034 17.5103 105.291 17.5103H107.554L107.714 18.7298C107.489 18.7619 107.147 18.7994 106.687 18.8422C106.227 18.8742 105.724 18.8903 105.179 18.8903H104.681Z" fill="#E9EFFF"/>
</svg>
